<?xml version="1.0" encoding="UTF-8"?>
<svg xmlns="http://www.w3.org/2000/svg" xmlns:xlink="http://www.w3.org/1999/xlink" width="350px" height="350px" viewBox="0 0 350 350" version="1.1">
<g id="surface1">
<path style=" stroke:none;fill-rule:nonzero;fill:rgb(70.980392%,70.980392%,70.980392%);fill-opacity:1;" d="M 300.78125 54.6875 L 49.21875 54.6875 C 40.15625 54.6875 32.8125 62.03125 32.8125 71.09375 L 32.8125 278.90625 C 32.8125 287.96875 40.15625 295.3125 49.21875 295.3125 L 300.78125 295.3125 C 309.84375 295.3125 317.1875 287.96875 317.1875 278.90625 L 317.1875 71.09375 C 317.1875 62.03125 309.84375 54.6875 300.78125 54.6875 Z M 284.375 202.34375 L 231.9375 145.140625 C 229.933594 142.921875 227.101562 141.628906 224.113281 141.566406 C 221.125 141.5 218.242188 142.667969 216.140625 144.796875 L 157.652344 203.285156 L 216.871094 262.5 L 185.9375 262.5 L 133.515625 210.078125 C 129.242188 205.808594 122.320312 205.808594 118.046875 210.078125 L 65.625 262.5 L 65.625 87.5 L 284.375 87.5 Z M 88.59375 136.71875 C 88.59375 122.222656 100.347656 110.46875 114.84375 110.46875 C 129.339844 110.46875 141.09375 122.222656 141.09375 136.71875 C 141.09375 151.214844 129.339844 162.96875 114.84375 162.96875 C 100.347656 162.96875 88.59375 151.214844 88.59375 136.71875 Z M 88.59375 136.71875 "/>
</g>
</svg>
